# xmcd
#
# Track frame offsets:
#	150
#	28921
#	47939
#	67797
#	87722
#	104952
#	125696
#	145123
#	163685
#	177400
#	198143
#	255299
#	273268
#
# Disc length: 3905 seconds
#
# Revision: 4
# Processed by: cddbd v1.5.2PL0 Copyright (c) Steve Scherf et al.
# Submitted via: EZCDAudioConverter 7.1.0.1
#
DISCID=bf0f3f0d
DTITLE=周杰伦 - 无与伦比演唱会Live CD1
DYEAR=2004
DGENRE=
TTITLE0=以父之名
TTITLE1=止战之殇
TTITLE2=她的睫毛
TTITLE3=晴天
TTITLE4=妳听得到
TTITLE5=梯田＋爸 我回来了
TTITLE6=园游会
TTITLE7=龙卷风
TTITLE8=将军
TTITLE9=乱舞春秋
TTITLE10=星晴＋回到过去＋最后的战役＋爱我别走
TTITLE11=我的地盘
TTITLE12=爱情悬崖
EXTD=
EXTT0=
EXTT1=
EXTT2=
EXTT3=
EXTT4=
EXTT5=
EXTT6=
EXTT7=
EXTT8=
EXTT9=
EXTT10=
EXTT11=
EXTT12=
PLAYORDER=
